<?xml version="1.0" standalone="no"?>
<!DOCTYPE svg PUBLIC "-//W3C//DTD SVG 20010904//EN"
 "http://www.w3.org/TR/2001/REC-SVG-20010904/DTD/svg10.dtd">
<svg version="1.0" xmlns="http://www.w3.org/2000/svg"
 width="700.000000pt" height="700.000000pt" viewBox="0 0 700.000000 700.000000"
 preserveAspectRatio="xMidYMid meet">
<metadata>
Created by potrace 1.14, written by Peter Selinger 2001-2017
</metadata>
<g transform="translate(0.000000,700.000000) scale(0.100000,-0.100000)"
fill="#000000" stroke="none">
<path d="M3410 6430 c-63 -48 -284 -212 -490 -365 -206 -154 -481 -357 -610
-453 -129 -96 -325 -242 -435 -324 -110 -81 -345 -256 -522 -387 l-321 -240
23 -68 c13 -37 85 -257 161 -488 75 -231 158 -485 184 -565 27 -80 84 -255
128 -390 44 -135 159 -486 255 -780 96 -294 201 -616 233 -715 72 -224 119
-346 195 -502 249 -517 586 -752 1144 -799 54 -5 369 -4 415 1 581 60 918 335
1190 970 58 133 145 390 244 715 36 118 131 431 211 695 80 264 159 523 175
575 16 52 51 169 79 260 28 91 85 278 127 415 42 138 80 264 84 280 4 17 34
113 65 214 31 101 53 187 48 191 -4 4 -116 88 -248 186 -132 99 -246 185 -255
191 -8 7 -112 84 -230 172 -118 88 -219 164 -225 169 -5 4 -26 19 -45 32 -19
14 -37 27 -40 30 -3 3 -57 44 -120 91 -63 47 -378 283 -700 524 -322 240 -589
441 -595 445 -5 4 -62 -32 -125 -80z m700 -700 c757 -567 780 -584 780 -590
-1 -3 -91 -75 -201 -160 -110 -85 -210 -163 -222 -172 -12 -9 -60 -47 -107
-84 -47 -36 -101 -79 -120 -94 -284 -228 -695 -538 -704 -531 -6 4 -198 152
-426 327 -228 175 -417 321 -420 324 -3 3 -30 23 -60 45 -30 22 -63 47 -72 55
-9 8 -100 78 -202 155 -102 77 -185 143 -185 147 -1 3 86 71 192 149 162 121
370 275 817 608 41 31 80 59 85 64 116 91 253 186 265 184 8 -2 269 -194 580
-427z m-2092 -817 c117 -90 521 -402 562 -433 18 -14 211 -162 429 -330 l396
-305 2 -765 c0 -421 2 -772 2 -782 1 -14 18 -16 139 -16 l138 -1 0 767 c-1
422 0 775 2 784 2 10 39 44 81 76 96 73 446 346 485 378 16 13 41 32 55 43 14
11 145 113 291 227 146 113 279 217 295 229 17 13 76 60 131 104 l102 79 273
-205 c151 -112 273 -208 272 -211 0 -4 -81 -268 -178 -587 -97 -319 -187 -616
-200 -660 -13 -44 -34 -116 -48 -160 -13 -44 -52 -172 -86 -285 -34 -113 -78
-254 -96 -315 -19 -60 -60 -193 -91 -295 -188 -621 -234 -751 -346 -975 -142
-282 -307 -459 -514 -551 -72 -32 -219 -72 -293 -79 -31 -3 -67 -8 -80 -11
-30 -6 -317 -6 -386 1 -214 20 -389 76 -525 168 -75 51 -194 177 -254 269
-103 158 -204 386 -281 633 -21 66 -66 206 -100 310 -61 185 -163 496 -338
1030 -137 418 -406 1240 -447 1367 -22 64 -40 124 -42 132 -2 11 87 84 277
226 154 115 281 209 283 209 2 1 42 -29 90 -66z"/>
<path d="M2150 3918 c-6 -24 -22 -83 -36 -132 -13 -50 -23 -91 -21 -92 1 -1
99 -27 217 -59 118 -31 244 -65 280 -75 231 -64 366 -98 372 -92 4 4 22 64 41
134 l34 128 -51 14 c-144 41 -806 216 -815 216 -5 0 -15 -19 -21 -42z"/>
<path d="M4730 3910 c-96 -26 -287 -78 -425 -115 -137 -37 -251 -68 -252 -69
-3 -3 67 -259 72 -264 3 -3 98 21 410 104 50 13 113 31 140 39 44 12 155 42
281 74 l41 11 -28 108 c-16 59 -32 119 -35 135 -4 15 -12 27 -18 26 -6 0 -90
-22 -186 -49z"/>
<path d="M2972 1971 c-8 -6 -10 -270 -2 -272 3 -1 269 -2 593 -3 l587 -1 0
141 0 140 -585 0 c-322 0 -589 -2 -593 -5z"/>
</g>
</svg>
