<?xml version="1.0" encoding="UTF-8" standalone="no"?>
<svg
   width="1000pt"
   height="1000pt"
   viewBox="0 0 1000 1000"
   version="1.2"
   id="svg508"
   sodipodi:docname="logo raw file AI (copy).ai"
   inkscape:export-filename="logo raw file AI (copy).ai.png"
   inkscape:export-xdpi="1179.6479"
   inkscape:export-ydpi="1179.6479"
   xmlns:inkscape="http://www.inkscape.org/namespaces/inkscape"
   xmlns:sodipodi="http://sodipodi.sourceforge.net/DTD/sodipodi-0.dtd"
   xmlns="http://www.w3.org/2000/svg"
   xmlns:svg="http://www.w3.org/2000/svg">
  <defs
     id="defs512" />
  <sodipodi:namedview
     id="namedview510"
     pagecolor="#ffffff"
     bordercolor="#000000"
     borderopacity="0.25"
     inkscape:showpageshadow="2"
     inkscape:pageopacity="0.0"
     inkscape:pagecheckerboard="0"
     inkscape:deskcolor="#d1d1d1"
     inkscape:document-units="pt"
     showgrid="true"
     inkscape:zoom="0.41790011"
     inkscape:cx="-26.32208"
     inkscape:cy="776.50136"
     inkscape:window-width="1920"
     inkscape:window-height="1016"
     inkscape:window-x="0"
     inkscape:window-y="0"
     inkscape:window-maximized="1"
     inkscape:current-layer="svg508">
    <inkscape:grid
       type="xygrid"
       id="grid770" />
  </sodipodi:namedview>
  <g
     id="surface58386">
    <path
       style="fill:none;stroke-width:40;stroke-linecap:butt;stroke-linejoin:miter;stroke:#5f5f5f;stroke-opacity:1;stroke-miterlimit:10"
       d="M 0 0 C -43.242188 -144.414062 -91.363281 -199.484375 -206.460938 -199.484375 C -326.859375 -199.484375 -372.910156 -150.03125 -415.832031 -2.878906 "
       id="path485"
       transform="matrix(1,0,0,-1,715.5,731)" />
    <path
       style="fill:none;stroke-width:40;stroke-linecap:butt;stroke-linejoin:miter;stroke:#5f5f5f;stroke-opacity:1;stroke-miterlimit:10"
       d="M -0.0014625 0.00145625 L 356.244631 264.665519 "
       transform="matrix(1,0,0,-1,159.4624,349.9038)"
       id="path487" />
    <path
       style="fill:none;stroke-width:40;stroke-linecap:butt;stroke-linejoin:miter;stroke:#5f5f5f;stroke-opacity:1;stroke-miterlimit:10"
       d="M 0.0004625 0.00150625 L 353.816869 -264.709431 "
       transform="matrix(1,0,0,-1,491.7886,85.1851)"
       id="path489" />
    <path
       style="fill:none;stroke-width:40;stroke-linecap:butt;stroke-linejoin:miter;stroke:#5f5f5f;stroke-opacity:1;stroke-miterlimit:10"
       d="M 0.0009625 0.000525 L -124.647475 -409.780725 "
       transform="matrix(1,0,0,-1,838.1631,328.1099)"
       id="path491" />
    <path
       style="fill:none;stroke-width:40;stroke-linecap:butt;stroke-linejoin:miter;stroke:#5f5f5f;stroke-opacity:1;stroke-miterlimit:10"
       d="M -0.0005125 -0.00004375 L 138.940894 -424.355513 "
       transform="matrix(1,0,0,-1,166.5552,327.7148)"
       id="path493" />
    <path
       style="fill:none;stroke-width:40;stroke-linecap:butt;stroke-linejoin:miter;stroke:#5f5f5f;stroke-opacity:1;stroke-miterlimit:10"
       d="M -0.00101875 0.000475 L 225.0732 -173.20265 "
       id="path495"
       transform="matrix(1,0,0,-1,274.9268,262.7036)" />
    <path
       style="fill:none;stroke-width:40;stroke-linecap:butt;stroke-linejoin:miter;stroke:#5f5f5f;stroke-opacity:1;stroke-miterlimit:10"
       d="M -0.0009375 0.00096875 L -222.07125 -173.202156 "
       id="path497"
       transform="matrix(1,0,0,-1,735.6025,262.583)" />
    <path
       style="fill:none;stroke-width:40;stroke-linecap:butt;stroke-linejoin:miter;stroke:#5f5f5f;stroke-opacity:1;stroke-miterlimit:10"
       d="M -0.00004375 -0.0009375 L -0.00004375 257.354531 "
       id="path499"
       transform="matrix(1,0,0,-1,506.6602,674.0225)" />
    <path
       style="fill:none;stroke:#5f5f5f;stroke-width:40;stroke-linecap:butt;stroke-linejoin:miter;stroke-miterlimit:10;stroke-opacity:1"
       d="m 303.72922,452.95562 124.92892,33.4746"
       id="path501" />
    <path
       style="fill:none;stroke:#5f5f5f;stroke-width:40;stroke-linecap:butt;stroke-linejoin:miter;stroke-miterlimit:10;stroke-opacity:1"
       d="m 583.84764,486.83423 124.92515,-33.4736"
       id="path503" />
    <path
       style="fill:none;stroke-width:40;stroke-linecap:butt;stroke-linejoin:miter;stroke:#5f5f5f;stroke-opacity:1;stroke-miterlimit:10"
       d="M 0.00146875 -0.00096875 L 169.3335 -0.00096875 "
       transform="matrix(1,0,0,-1,423.6665,737.667)"
       id="path505" />
  </g>
</svg>
