<svg xmlns="http://www.w3.org/2000/svg" viewBox="0 0 160 160" width="160" height="160" preserveAspectRatio="xMidYMid meet" style="width: 100%; height: 100%; transform: translate3d(0px, 0px, 0px); content-visibility: visible;"><defs><clipPath id="__lottie_element_18"><rect width="160" height="160" x="0" y="0"></rect></clipPath><clipPath id="__lottie_element_20"><path d="M0,0 L280,0 L280,280 L0,280z"></path></clipPath><clipPath id="__lottie_element_24"><path d="M0,0 L280,0 L280,280 L0,280z"></path></clipPath><mask id="__lottie_element_173" mask-type="alpha"><g transform="matrix(0.666670024394989,0,0,0.666670024394989,81.7800064086914,80.59333801269531)" opacity="1" style="display: block;"><g opacity="1" transform="matrix(1,0,0,1,-2.6700000762939453,-0.8899999856948853)"><path fill="rgb(255,255,255)" fill-opacity="1" d=" M0,-200.59249877929688 C110.70700073242188,-200.59249877929688 200.59249877929688,-110.70700073242188 200.59249877929688,0 C200.59249877929688,110.70700073242188 110.70700073242188,200.59249877929688 0,200.59249877929688 C-110.70700073242188,200.59249877929688 -200.59249877929688,110.70700073242188 -200.59249877929688,0 C-200.59249877929688,-110.70700073242188 -110.70700073242188,-200.59249877929688 0,-200.59249877929688z"></path></g></g></mask><filter id="__lottie_element_176" filterUnits="objectBoundingBox" x="0%" y="0%" width="100%" height="100%"><feComponentTransfer in="SourceGraphic"><feFuncA type="table" tableValues="1.0 0.0"></feFuncA></feComponentTransfer></filter><mask id="__lottie_element_169" mask-type="alpha"><g filter="url(#__lottie_element_176)"><rect width="160" height="160" x="0" y="0" fill="#ffffff" opacity="0"></rect><g transform="matrix(0.3333300054073334,0,0,0.3333300054073334,89.6639175415039,59.00788116455078)" opacity="1" style="display: block;"><g opacity="1" transform="matrix(1,0,0,1,75.55599975585938,121.34200286865234)"><path fill="rgb(255,255,255)" fill-opacity="1" d=" M0.5199999809265137,121.09200286865234 C0.23000000417232513,121.09200286865234 -0.05999999865889549,121.08699798583984 -0.3499999940395355,121.0780029296875 C-7.572000026702881,120.84300231933594 -14.121999740600586,118.21299743652344 -19.336999893188477,113.4729995727539 C-19.336999893188477,113.4729995727539 -19.72100067138672,113.11599731445312 -19.72100067138672,113.11599731445312 C-19.72100067138672,113.11599731445312 -33.847999572753906,99.66300201416016 -33.847999572753906,99.66300201416016 C-40.395999908447266,93.45999908447266 -44.0260009765625,85.08999633789062 -44.0260009765625,76.13800048828125 C-44.0260009765625,76.13800048828125 -44.0260009765625,15.416000366210938 -44.0260009765625,15.416000366210938 C-51.560001373291016,10.032999992370605 -57.96699905395508,3.316999912261963 -63.16600036621094,-4.664999961853027 C-71.22000122070312,-17.020999908447266 -75.30599975585938,-30.97100067138672 -75.30599975585938,-46.12300109863281 C-75.30599975585938,-59.803001403808594 -71.875,-72.53900146484375 -65.10800170898438,-83.9800033569336 C-58.46900177001953,-95.2040023803711 -49.41400146484375,-104.25900268554688 -38.194000244140625,-110.8949966430664 C-26.757999420166016,-117.66100311279297 -13.906999588012695,-121.09200286865234 0,-121.09200286865234 C13.791999816894531,-121.09200286865234 26.584999084472656,-117.66100311279297 38.025001525878906,-110.8949966430664 C38.025001525878906,-110.8949966430664 38.02799987792969,-110.89399719238281 38.02799987792969,-110.89399719238281 C49.20800018310547,-104.27899932861328 58.27000045776367,-95.26000213623047 64.96199798583984,-84.08599853515625 C71.8270034790039,-72.61199951171875 75.30599975585938,-59.84299850463867 75.30599975585938,-46.12300109863281 C75.30599975585938,-30.79599952697754 70.89900207519531,-16.76300048828125 62.20899963378906,-4.414999961853027 C59.518001556396484,-0.593999981880188 56.47800064086914,2.9820001125335693 53.097999572753906,6.300000190734863 C57.731998443603516,11.89900016784668 60.16999816894531,18.56100082397461 60.16999816894531,25.687000274658203 C60.16999816894531,33.64699935913086 57.05500030517578,41.14799880981445 51.39699935913086,46.80699920654297 C51.39699935913086,46.80699920654297 48.75600051879883,49.400001525878906 48.75600051879883,49.400001525878906 C52.14699935913086,54.08300018310547 54.08700180053711,59.55500030517578 54.41699981689453,65.46399688720703 C54.87900161743164,73.90599822998047 51.77899932861328,81.9000015258789 45.68899917602539,87.9990005493164 C45.68899917602539,87.9990005493164 20.674999237060547,112.98999786376953 20.674999237060547,112.98999786376953 C15.015999794006348,118.23500061035156 7.888999938964844,121.09200286865234 0.5199999809265137,121.09200286865234z"></path></g></g></g></mask><filter id="__lottie_element_180" filterUnits="objectBoundingBox" x="0%" y="0%" width="100%" height="100%"><feComponentTransfer in="SourceGraphic"><feFuncA type="table" tableValues="1.0 0.0"></feFuncA></feComponentTransfer></filter><mask id="__lottie_element_179" mask-type="alpha"><g filter="url(#__lottie_element_180)"><rect width="160" height="160" x="0" y="0" fill="#ffffff" opacity="0"></rect><g transform="matrix(0.3333300054073334,0,0,0.3333300054073334,90.68357849121094,57.21723175048828)" opacity="1" style="display: block;"><g opacity="1" transform="matrix(1,0,0,1,75.55599975585938,121.34200286865234)"><path fill="rgb(255,255,255)" fill-opacity="1" d=" M0.5199999809265137,121.09200286865234 C0.23000000417232513,121.09200286865234 -0.05999999865889549,121.08699798583984 -0.3499999940395355,121.0780029296875 C-7.572000026702881,120.84300231933594 -14.121999740600586,118.21299743652344 -19.336999893188477,113.4729995727539 C-19.336999893188477,113.4729995727539 -19.72100067138672,113.11599731445312 -19.72100067138672,113.11599731445312 C-19.72100067138672,113.11599731445312 -33.847999572753906,99.66300201416016 -33.847999572753906,99.66300201416016 C-40.395999908447266,93.45999908447266 -44.0260009765625,85.08999633789062 -44.0260009765625,76.13800048828125 C-44.0260009765625,76.13800048828125 -44.0260009765625,15.416000366210938 -44.0260009765625,15.416000366210938 C-51.560001373291016,10.032999992370605 -57.96699905395508,3.316999912261963 -63.16600036621094,-4.664999961853027 C-71.22000122070312,-17.020999908447266 -75.30599975585938,-30.97100067138672 -75.30599975585938,-46.12300109863281 C-75.30599975585938,-59.803001403808594 -71.875,-72.53900146484375 -65.10800170898438,-83.9800033569336 C-58.46900177001953,-95.2040023803711 -49.41400146484375,-104.25900268554688 -38.194000244140625,-110.8949966430664 C-26.757999420166016,-117.66100311279297 -13.906999588012695,-121.09200286865234 0,-121.09200286865234 C13.791999816894531,-121.09200286865234 26.584999084472656,-117.66100311279297 38.025001525878906,-110.8949966430664 C38.025001525878906,-110.8949966430664 38.02799987792969,-110.89399719238281 38.02799987792969,-110.89399719238281 C49.20800018310547,-104.27899932861328 58.27000045776367,-95.26000213623047 64.96199798583984,-84.08599853515625 C71.8270034790039,-72.61199951171875 75.30599975585938,-59.84299850463867 75.30599975585938,-46.12300109863281 C75.30599975585938,-30.79599952697754 70.89900207519531,-16.76300048828125 62.20899963378906,-4.414999961853027 C59.518001556396484,-0.593999981880188 56.47800064086914,2.9820001125335693 53.097999572753906,6.300000190734863 C57.731998443603516,11.89900016784668 60.16999816894531,18.56100082397461 60.16999816894531,25.687000274658203 C60.16999816894531,33.64699935913086 57.05500030517578,41.14799880981445 51.39699935913086,46.80699920654297 C51.39699935913086,46.80699920654297 48.75600051879883,49.400001525878906 48.75600051879883,49.400001525878906 C52.14699935913086,54.08300018310547 54.08700180053711,59.55500030517578 54.41699981689453,65.46399688720703 C54.87900161743164,73.90599822998047 51.77899932861328,81.9000015258789 45.68899917602539,87.9990005493164 C45.68899917602539,87.9990005493164 20.674999237060547,112.98999786376953 20.674999237060547,112.98999786376953 C15.015999794006348,118.23500061035156 7.888999938964844,121.09200286865234 0.5199999809265137,121.09200286865234z"></path></g></g></g></mask></defs><g clip-path="url(#__lottie_element_18)"><g style="display: block;" mask="url(#__lottie_element_169)"><g transform="matrix(0.3333300054073334,0,0,0.3333300054073334,22.083141326904297,23.250179290771484)" opacity="1"><g opacity="1" transform="matrix(1,0,0,1,143.447998046875,74.83399963378906)"><path fill="rgb(255,255,255)" fill-opacity="1" d=" M-34.474998474121094,64.49400329589844 C-44.84600067138672,57.766998291015625 -53.17100143432617,48.74399948120117 -59.448001861572266,37.417999267578125 C-65.72899627685547,26.09600067138672 -68.86599731445312,13.428000450134277 -68.86599731445312,-0.5879999995231628 C-68.86599731445312,-14.265000343322754 -65.72899627685547,-26.709999084472656 -59.448001861572266,-37.922000885009766 C-53.17100143432617,-49.13199996948242 -44.81800079345703,-58.04499816894531 -34.39099884033203,-64.66200256347656 C-23.964000701904297,-71.2750015258789 -12.529000282287598,-74.58399963378906 -0.08399999886751175,-74.58399963378906 C12.470999717712402,-74.58399963378906 23.96500015258789,-71.30400085449219 34.39099884033203,-64.74600219726562 C44.81800079345703,-58.1870002746582 53.16899871826172,-49.29999923706055 59.44900131225586,-38.090999603271484 C65.72599792480469,-26.878000259399414 68.86599731445312,-14.48900032043457 68.86599731445312,-0.925000011920929 C68.86599731445312,13.20199966430664 65.75499725341797,25.95599937438965 59.53300094604492,37.33399963378906 C53.310001373291016,48.71500015258789 44.986000061035156,57.766998291015625 34.558998107910156,64.49400329589844 C24.132999420166016,71.22100067138672 12.583999633789062,74.58399963378906 -0.08399999886751175,74.58399963378906 C-12.642000198364258,74.58399963378906 -24.106000900268555,71.22100067138672 -34.474998474121094,64.49400329589844z"></path></g></g></g><g mask="url(#__lottie_element_179)" style="display: block;"><g transform="matrix(0.3333300054073334,0,0,0.3333300054073334,22.083141326904297,23.250179290771484)" opacity="1"><g opacity="1" transform="matrix(1,0,0,1,142.41400146484375,240.66200256347656)"><path fill="rgb(255,255,255)" fill-opacity="1" d=" M132.07400512695312,6.210999965667725 C125.34700012207031,-5.616000175476074 115.73500061035156,-16.687000274658203 103.23300170898438,-27.003000259399414 C90.73300170898438,-37.316001892089844 75.76799774169922,-45.14699935913086 58.07899856567383,-52.14400100708008 C30.6200008392334,-63.00699996948242 -20.05699920654297,-66.5009994506836 -58.077999114990234,-52.14400100708008 C-75.61599731445312,-45.52199935913086 -90.73200225830078,-37.316001892089844 -103.23200225830078,-27.003000259399414 C-115.73400115966797,-16.687000274658203 -125.34600067138672,-5.616000175476074 -132.072998046875,6.210999965667725 C-138.8000030517578,18.041000366210938 -142.16400146484375,29.334999084472656 -142.16400146484375,40.097999572753906 C-142.16400146484375,48.393001556396484 -139.24899291992188,54.86800003051758 -133.41900634765625,59.520999908447266 C-127.58999633789062,64.1719970703125 -119.572998046875,66.5 -109.37000274658203,66.5 C-109.37000274658203,66.5 -105.552001953125,66.5 -105.552001953125,66.5 C-105.552001953125,66.5 105.5530014038086,66.5 105.5530014038086,66.5 C105.5530014038086,66.5 109.37100219726562,66.5 109.37100219726562,66.5 C119.5739974975586,66.5 127.59100341796875,64.1719970703125 133.41900634765625,59.520999908447266 C139.25,54.86800003051758 142.16400146484375,48.393001556396484 142.16400146484375,40.097999572753906 C142.16400146484375,29.334999084472656 138.80099487304688,18.041000366210938 132.07400512695312,6.210999965667725z"></path></g></g></g><g style="display: block;" mask="url(#__lottie_element_173)"><g transform="matrix(0.3333300054073334,0,0,0.3333300054073334,97.48184204101562,65.71914672851562)" opacity="1"><g opacity="1" transform="matrix(1,0,0,1,53.055999755859375,98.86799621582031)"><path fill="rgb(255,255,255)" fill-opacity="1" d=" M43.808998107910156,-17.391000747680664 C49.80500030517578,-25.90999984741211 52.805999755859375,-35.49599838256836 52.805999755859375,-46.14899826049805 C52.805999755859375,-55.790000915527344 50.422000885009766,-64.58999633789062 45.65800094604492,-72.552001953125 C40.891998291015625,-80.51100158691406 34.529998779296875,-86.84600067138672 26.570999145507812,-91.55500030517578 C18.608999252319336,-96.26399993896484 9.753999710083008,-98.61799621582031 0,-98.61799621582031 C-9.866999626159668,-98.61799621582031 -18.780000686645508,-96.26399993896484 -26.73900032043457,-91.55500030517578 C-34.70100021362305,-86.84600067138672 -41.034000396728516,-80.51100158691406 -45.74300003051758,-72.552001953125 C-50.45100021362305,-64.58999633789062 -52.805999755859375,-55.790000915527344 -52.805999755859375,-46.14899826049805 C-52.805999755859375,-35.38600158691406 -49.97600173950195,-25.658000946044922 -44.3129997253418,-16.97100067138672 C-38.65299987792969,-8.281000137329102 -31.05699920654297,-1.8070000410079956 -21.525999069213867,2.453000068664551 C-21.525999069213867,2.453000068664551 -21.525999069213867,76.11199951171875 -21.525999069213867,76.11199951171875 C-21.525999069213867,78.91300201416016 -20.461999893188477,81.32499694824219 -18.33099937438965,83.34300231933594 C-18.33099937438965,83.34300231933594 -4.203999996185303,96.7969970703125 -4.203999996185303,96.7969970703125 C-2.9719998836517334,97.91600036621094 -1.4579999446868896,98.50499725341797 0.335999995470047,98.56300354003906 C2.128000020980835,98.61799621582031 3.809999942779541,97.91600036621094 5.38100004196167,96.46099853515625 C5.38100004196167,96.46099853515625 29.766000747680664,72.07599639892578 29.766000747680664,72.07599639892578 C31.334999084472656,70.50399780273438 32.0629997253418,68.71199798583984 31.95199966430664,66.69400024414062 C31.84000015258789,64.6760025024414 31.054000854492188,62.9370002746582 29.597999572753906,61.48099899291992 C29.597999572753906,61.48099899291992 17.320999145507812,48.70000076293945 17.320999145507812,48.70000076293945 C17.320999145507812,48.70000076293945 35.48400115966797,30.874000549316406 35.48400115966797,30.874000549316406 C36.939998626708984,29.417999267578125 37.66999816894531,27.67799949645996 37.66999816894531,25.65999984741211 C37.66999816894531,23.642000198364258 36.8849983215332,21.79199981689453 35.316001892089844,20.111000061035156 C35.316001892089844,20.111000061035156 18.33099937438965,3.125 18.33099937438965,3.125 C29.316999435424805,-2.0299999713897705 37.810001373291016,-8.869999885559082 43.808998107910156,-17.391000747680664z M10.847000122070312,-45.391998291015625 C7.76200008392334,-42.30699920654297 4.091000080108643,-40.766998291015625 -0.1679999977350235,-40.766998291015625 C-4.316999912261963,-40.766998291015625 -7.961999893188477,-42.30699920654297 -11.098999977111816,-45.391998291015625 C-14.239999771118164,-48.4739990234375 -15.807999610900879,-52.202999114990234 -15.807999610900879,-56.57500076293945 C-15.807999610900879,-60.834999084472656 -14.267999649047852,-64.50599670410156 -11.182999610900879,-67.59100341796875 C-8.10099983215332,-70.6729965209961 -4.429999828338623,-72.21499633789062 -0.1679999977350235,-72.21499633789062 C4.091000080108643,-72.21499633789062 7.76200008392334,-70.6729965209961 10.847000122070312,-67.59100341796875 C13.928999900817871,-64.50599670410156 15.472000122070312,-60.834999084472656 15.472000122070312,-56.57500076293945 C15.472000122070312,-52.202999114990234 13.928999900817871,-48.4739990234375 10.847000122070312,-45.391998291015625z"></path></g></g></g><g clip-path="url(#__lottie_element_20)" transform="matrix(0.4333299994468689,0,0,0.4333299994468689,19.33380126953125,19.33380126953125)" opacity="1" style="display: none;"><g clip-path="url(#__lottie_element_24)" transform="matrix(1,0,0,1,0,0)" opacity="0.3" style="display: block;"><g transform="matrix(1,0,0,1,140,140)" opacity="1" style="display: block;"><g opacity="1" transform="matrix(1,0,0,1,0,0)"><path stroke-linecap="round" stroke-linejoin="miter" fill-opacity="0" stroke-miterlimit="4" stroke="rgb(255,255,255)" stroke-opacity="1" stroke-width="10" d=" M-0.06199999898672104,0.8119999766349792 C-0.06199999898672104,0.8119999766349792 11,38.25 -1.562000036239624,93.375"></path></g></g><g transform="matrix(1,0,0,1,140,140)" opacity="1" style="display: block;"><g opacity="1" transform="matrix(1,0,0,1,0,0)"><path stroke-linecap="round" stroke-linejoin="miter" fill-opacity="0" stroke-miterlimit="4" stroke="rgb(255,255,255)" stroke-opacity="1" stroke-width="10" d=" M-7.688000202178955,114.31199645996094 C-7.688000202178955,114.31199645996094 -10.75,120.875 -13.562000274658203,128.75"></path></g></g><g transform="matrix(1,0,0,1,140,140)" opacity="1" style="display: block;"><g opacity="1" transform="matrix(1,0,0,1,0,0)"><path stroke-linecap="round" stroke-linejoin="miter" fill-opacity="0" stroke-miterlimit="4" stroke="rgb(255,255,255)" stroke-opacity="1" stroke-width="10" d=" M26.312000274658203,45.5629997253418 C26.312000274658203,45.5629997253418 29.25,-24 -2.493000030517578,-19.700000762939453 C-33.75,-15.5 -14.111000061035156,23.07200050354004 -17.04400062561035,57.70399856567383 C-19.94300079345703,91.93299865722656 -34.49100112915039,121.2020034790039 -35.3120002746582,123.5"></path></g></g><g transform="matrix(1,0,0,1,140,140)" opacity="1" style="display: block;"><g opacity="1" transform="matrix(1,0,0,1,0,0)"><path stroke-linecap="round" stroke-linejoin="miter" fill-opacity="0" stroke-miterlimit="4" stroke="rgb(255,255,255)" stroke-opacity="1" stroke-width="10" d=" M24.812000274658203,71.06300354003906 C24.812000274658203,71.06300354003906 21,103.25 9.937999725341797,128.5"></path></g></g><g transform="matrix(1,0,0,1,140,140)" opacity="1" style="display: block;"><g opacity="1" transform="matrix(1,0,0,1,0,0)"><path stroke-linecap="round" stroke-linejoin="miter" fill-opacity="0" stroke-miterlimit="4" stroke="rgb(255,255,255)" stroke-opacity="1" stroke-width="10" d=" M-13.187999725341797,-41.4379997253418 C-13.187999725341797,-41.4379997253418 26.222000122070312,-50.39699935913086 40.52299880981445,-12.190999984741211 C58,34.5 40.83100128173828,109.40799713134766 34.4379997253418,124"></path></g></g><g transform="matrix(1,0,0,1,140,140)" opacity="1" style="display: block;"><g opacity="1" transform="matrix(1,0,0,1,0,0)"><path stroke-linecap="round" stroke-linejoin="miter" fill-opacity="0" stroke-miterlimit="4" stroke="rgb(255,255,255)" stroke-opacity="1" stroke-width="10" d=" M-32.6879997253418,-28.687999725341797 C-32.6879997253418,-28.687999725341797 -47.80699920654297,-14.467000007629395 -38.97700119018555,32.308998107910156 C-33.75,60 -48.66899871826172,100.90799713134766 -55.0620002746582,115.5"></path></g></g><g transform="matrix(1,0,0,1,140,140)" opacity="1" style="display: block;"><g opacity="1" transform="matrix(1,0,0,1,0,0)"><path stroke-linecap="round" stroke-linejoin="miter" fill-opacity="0" stroke-miterlimit="4" stroke="rgb(255,255,255)" stroke-opacity="1" stroke-width="10" d=" M-64.72699737548828,81.55899810791016 C-66.87999725341797,87.36399841308594 -68.75,98 -73.56199645996094,105"></path></g></g><g transform="matrix(1,0,0,1,140,140)" opacity="1" style="display: block;"><g opacity="1" transform="matrix(1,0,0,1,0,0)"><path stroke-linecap="round" stroke-linejoin="miter" fill-opacity="0" stroke-miterlimit="4" stroke="rgb(255,255,255)" stroke-opacity="1" stroke-width="10" d=" M51.02299880981445,-39.691001892089844 C32.25,-60.5 -3,-76.5 -39.82899856567383,-50.185001373291016 C-83.25,-16.75 -54.75,26.5 -60.5620002746582,57"></path></g></g><g transform="matrix(1,0,0,1,140,140)" opacity="1" style="display: block;"><g opacity="1" transform="matrix(1,0,0,1,0,0)"><path stroke-linecap="round" stroke-linejoin="miter" fill-opacity="0" stroke-miterlimit="4" stroke="rgb(255,255,255)" stroke-opacity="1" stroke-width="10" d=" M62.52299880981445,-18.19099998474121 C72.75,24 72.5,76.25 60.0620002746582,112.875"></path></g></g><g transform="matrix(1,0,0,1,140,140)" opacity="1" style="display: block;"><g opacity="1" transform="matrix(1,0,0,1,0,0)"><path stroke-linecap="round" stroke-linejoin="miter" fill-opacity="0" stroke-miterlimit="4" stroke="rgb(255,255,255)" stroke-opacity="1" stroke-width="10" d=" M43.77299880981445,-73.69100189208984 C98,-41.75 94.25,49 87.56199645996094,94.375"></path></g></g><g transform="matrix(1,0,0,1,140,140)" opacity="1" style="display: block;"><g opacity="1" transform="matrix(1,0,0,1,0,0)"><path stroke-linecap="round" stroke-linejoin="miter" fill-opacity="0" stroke-miterlimit="4" stroke="rgb(255,255,255)" stroke-opacity="1" stroke-width="10" d=" M22.273000717163086,-81.69100189208984 C-18.5,-90.5 -50.729000091552734,-74.89900207519531 -70.65899658203125,-48.68899917602539 C-103.5,-5.5 -67,47 -90.93800354003906,90.875"></path></g></g><g transform="matrix(1,0,0,1,140,140)" opacity="1" style="display: block;"><g opacity="1" transform="matrix(1,0,0,1,0,0)"><path stroke-linecap="round" stroke-linejoin="miter" fill-opacity="0" stroke-miterlimit="4" stroke="rgb(255,255,255)" stroke-opacity="1" stroke-width="10" d=" M-61.72700119018555,-86.94100189208984 C-87.25,-69.75 -100.40899658203125,-41.88600158691406 -105.14700317382812,-18.85300064086914 C-111.75,13.25 -95,41.25 -105.68800354003906,73.375"></path></g></g><g transform="matrix(1,0,0,1,140,140)" opacity="1" style="display: block;"><g opacity="1" transform="matrix(1,0,0,1,0,0)"><path stroke-linecap="round" stroke-linejoin="miter" fill-opacity="0" stroke-miterlimit="4" stroke="rgb(255,255,255)" stroke-opacity="1" stroke-width="10" d=" M-39.72700119018555,-98.69100189208984 C6.25,-117.75 48.98899841308594,-100.77400207519531 76.60299682617188,-74.35299682617188 C100.75,-51.25 109.5009994506836,-10.5 111.31300354003906,18.125"></path></g></g><g transform="matrix(1,0,0,1,140,140)" opacity="1" style="display: block;"><g opacity="1" transform="matrix(1,0,0,1,0,0)"><path stroke-linecap="round" stroke-linejoin="miter" fill-opacity="0" stroke-miterlimit="4" stroke="rgb(255,255,255)" stroke-opacity="1" stroke-width="10" d=" M112.35299682617188,42.77199935913086 C112.56700134277344,45.37099838256836 112.5,58.5 112.43800354003906,62.75"></path></g></g><g transform="matrix(1,0,0,1,140,140)" opacity="1" style="display: block;"><g opacity="1" transform="matrix(1,0,0,1,0,0)"><path stroke-linecap="round" stroke-linejoin="miter" fill-opacity="0" stroke-miterlimit="4" stroke="rgb(255,255,255)" stroke-opacity="1" stroke-width="10" d=" M22.773000717163086,-126.69100189208984 C62,-119.5 82.0790023803711,-100.3239974975586 94.10299682617188,-87.35299682617188 C106.25,-74.25 128,-46.5 129.56199645996094,0.375"></path></g></g><g transform="matrix(1,0,0,1,140,140)" opacity="1" style="display: block;"><g opacity="1" transform="matrix(1,0,0,1,0,0)"><path stroke-linecap="round" stroke-linejoin="miter" fill-opacity="0" stroke-miterlimit="4" stroke="rgb(255,255,255)" stroke-opacity="1" stroke-width="10" d=" M-2.2269999980926514,-128.1909942626953 C-35,-127.75 -58.25,-116 -74.39700317382812,-104.85299682617188 C-84.50700378417969,-97.8740005493164 -102.75,-81.25 -115.68800354003906,-57.375"></path></g></g><g transform="matrix(1,0,0,1,140,140)" opacity="1" style="display: block;"><g opacity="1" transform="matrix(1,0,0,1,0,0)"><path stroke-linecap="round" stroke-linejoin="miter" fill-opacity="0" stroke-miterlimit="4" stroke="rgb(255,255,255)" stroke-opacity="1" stroke-width="10" d=" M-122.39700317382812,-34.35300064086914 C-129.5,-21 -130,15.5 -122.18800354003906,41.625"></path></g></g></g><g style="display: none;" transform="matrix(1,0,0,1,140,140)" opacity="1"><g opacity="1" transform="matrix(1,0,0,1,0,0)"><path stroke-linecap="round" stroke-linejoin="miter" fill-opacity="0" stroke-miterlimit="4" stroke="rgb(255,255,255)" stroke-opacity="1" stroke-width="10" d=" M-0.06199999898672104,0.8119999766349792 C-0.06199999898672104,0.8119999766349792 11,38.25 -1.562000036239624,93.375"></path></g></g><g style="display: none;" transform="matrix(1,0,0,1,140,140)" opacity="1"><g opacity="1" transform="matrix(1,0,0,1,0,0)"><path stroke-linecap="round" stroke-linejoin="miter" fill-opacity="0" stroke-miterlimit="4" stroke="rgb(255,255,255)" stroke-opacity="1" stroke-width="10" d=" M-7.688000202178955,114.31199645996094 C-7.688000202178955,114.31199645996094 -10.75,120.875 -13.562000274658203,128.75"></path></g></g><g transform="matrix(1,0,0,1,140,140)" opacity="1" style="display: none;"><g opacity="1" transform="matrix(1,0,0,1,0,0)"><path stroke-linecap="round" stroke-linejoin="miter" fill-opacity="0" stroke-miterlimit="4" stroke="rgb(255,255,255)" stroke-opacity="1" stroke-width="10" d=" M26.312000274658203,45.5629997253418 C26.312000274658203,45.5629997253418 29.25,-24 -2.493000030517578,-19.700000762939453 C-33.75,-15.5 -14.111000061035156,23.07200050354004 -17.04400062561035,57.70399856567383 C-19.94300079345703,91.93299865722656 -34.49100112915039,121.2020034790039 -35.3120002746582,123.5"></path></g></g><g style="display: none;" transform="matrix(1,0,0,1,140,140)" opacity="1"><g opacity="1" transform="matrix(1,0,0,1,0,0)"><path stroke-linecap="round" stroke-linejoin="miter" fill-opacity="0" stroke-miterlimit="4" stroke="rgb(255,255,255)" stroke-opacity="1" stroke-width="10" d=" M24.812000274658203,71.06300354003906 C24.812000274658203,71.06300354003906 21,103.25 9.937999725341797,128.5"></path></g></g><g transform="matrix(1,0,0,1,140,140)" opacity="1" style="display: none;"><g opacity="1" transform="matrix(1,0,0,1,0,0)"><path stroke-linecap="round" stroke-linejoin="miter" fill-opacity="0" stroke-miterlimit="4" stroke="rgb(255,255,255)" stroke-opacity="1" stroke-width="10" d=" M-13.187999725341797,-41.4379997253418 C-13.187999725341797,-41.4379997253418 26.222000122070312,-50.39699935913086 40.52299880981445,-12.190999984741211 C58,34.5 40.83100128173828,109.40799713134766 34.4379997253418,124"></path></g></g><g transform="matrix(1,0,0,1,140,140)" opacity="1" style="display: none;"><g opacity="1" transform="matrix(1,0,0,1,0,0)"><path stroke-linecap="round" stroke-linejoin="miter" fill-opacity="0" stroke-miterlimit="4" stroke="rgb(255,255,255)" stroke-opacity="1" stroke-width="10" d=" M-32.6879997253418,-28.687999725341797 C-32.6879997253418,-28.687999725341797 -47.80699920654297,-14.467000007629395 -38.97700119018555,32.308998107910156 C-33.75,60 -48.66899871826172,100.90799713134766 -55.0620002746582,115.5"></path></g></g><g style="display: none;" transform="matrix(1,0,0,1,140,140)" opacity="1"><g opacity="1" transform="matrix(1,0,0,1,0,0)"><path stroke-linecap="round" stroke-linejoin="miter" fill-opacity="0" stroke-miterlimit="4" stroke="rgb(255,255,255)" stroke-opacity="1" stroke-width="10" d=" M-64.72699737548828,81.55899810791016 C-66.87999725341797,87.36399841308594 -68.75,98 -73.56199645996094,105"></path></g></g><g transform="matrix(1,0,0,1,140,140)" opacity="1" style="display: none;"><g opacity="1" transform="matrix(1,0,0,1,0,0)"><path stroke-linecap="round" stroke-linejoin="miter" fill-opacity="0" stroke-miterlimit="4" stroke="rgb(255,255,255)" stroke-opacity="1" stroke-width="10" d=" M51.02299880981445,-39.691001892089844 C32.25,-60.5 -3,-76.5 -39.82899856567383,-50.185001373291016 C-83.25,-16.75 -54.75,26.5 -60.5620002746582,57"></path></g></g><g transform="matrix(1,0,0,1,140,140)" opacity="1" style="display: none;"><g opacity="1" transform="matrix(1,0,0,1,0,0)"><path stroke-linecap="round" stroke-linejoin="miter" fill-opacity="0" stroke-miterlimit="4" stroke="rgb(255,255,255)" stroke-opacity="1" stroke-width="10" d=" M62.52299880981445,-18.19099998474121 C72.75,24 72.5,76.25 60.0620002746582,112.875"></path></g></g><g transform="matrix(1,0,0,1,140,140)" opacity="1" style="display: none;"><g opacity="1" transform="matrix(1,0,0,1,0,0)"><path stroke-linecap="round" stroke-linejoin="miter" fill-opacity="0" stroke-miterlimit="4" stroke="rgb(255,255,255)" stroke-opacity="1" stroke-width="10" d=" M43.77299880981445,-73.69100189208984 C98,-41.75 94.25,49 87.56199645996094,94.375"></path></g></g><g transform="matrix(1,0,0,1,140,140)" opacity="1" style="display: none;"><g opacity="1" transform="matrix(1,0,0,1,0,0)"><path stroke-linecap="round" stroke-linejoin="miter" fill-opacity="0" stroke-miterlimit="4" stroke="rgb(255,255,255)" stroke-opacity="1" stroke-width="10" d=" M22.273000717163086,-81.69100189208984 C-18.5,-90.5 -50.729000091552734,-74.89900207519531 -70.65899658203125,-48.68899917602539 C-103.5,-5.5 -67,47 -90.93800354003906,90.875"></path></g></g><g transform="matrix(1,0,0,1,140,140)" opacity="1" style="display: none;"><g opacity="1" transform="matrix(1,0,0,1,0,0)"><path stroke-linecap="round" stroke-linejoin="miter" fill-opacity="0" stroke-miterlimit="4" stroke="rgb(255,255,255)" stroke-opacity="1" stroke-width="10" d=" M-61.72700119018555,-86.94100189208984 C-87.25,-69.75 -100.40899658203125,-41.88600158691406 -105.14700317382812,-18.85300064086914 C-111.75,13.25 -95,41.25 -105.68800354003906,73.375"></path></g></g><g transform="matrix(1,0,0,1,140,140)" opacity="1" style="display: none;"><g opacity="1" transform="matrix(1,0,0,1,0,0)"><path stroke-linecap="round" stroke-linejoin="miter" fill-opacity="0" stroke-miterlimit="4" stroke="rgb(255,255,255)" stroke-opacity="1" stroke-width="10" d=" M-39.72700119018555,-98.69100189208984 C6.25,-117.75 48.98899841308594,-100.77400207519531 76.60299682617188,-74.35299682617188 C100.75,-51.25 109.5009994506836,-10.5 111.31300354003906,18.125"></path></g></g><g style="display: none;" transform="matrix(1,0,0,1,140,140)" opacity="1"><g opacity="1" transform="matrix(1,0,0,1,0,0)"><path stroke-linecap="round" stroke-linejoin="miter" fill-opacity="0" stroke-miterlimit="4" stroke="rgb(255,255,255)" stroke-opacity="1" stroke-width="10" d=" M112.35299682617188,42.77199935913086 C112.56700134277344,45.37099838256836 112.5,58.5 112.43800354003906,62.75"></path></g></g><g transform="matrix(1,0,0,1,140,140)" opacity="1" style="display: none;"><g opacity="1" transform="matrix(1,0,0,1,0,0)"><path stroke-linecap="round" stroke-linejoin="miter" fill-opacity="0" stroke-miterlimit="4" stroke="rgb(255,255,255)" stroke-opacity="1" stroke-width="10" d=" M22.773000717163086,-126.69100189208984 C62,-119.5 82.0790023803711,-100.3239974975586 94.10299682617188,-87.35299682617188 C106.25,-74.25 128,-46.5 129.56199645996094,0.375"></path></g></g><g transform="matrix(1,0,0,1,140,140)" opacity="1" style="display: none;"><g opacity="1" transform="matrix(1,0,0,1,0,0)"><path stroke-linecap="round" stroke-linejoin="miter" fill-opacity="0" stroke-miterlimit="4" stroke="rgb(255,255,255)" stroke-opacity="1" stroke-width="10" d=" M-2.2269999980926514,-128.1909942626953 C-35,-127.75 -58.25,-116 -74.39700317382812,-104.85299682617188 C-84.50700378417969,-97.8740005493164 -102.75,-81.25 -115.68800354003906,-57.375"></path></g></g><g transform="matrix(1,0,0,1,140,140)" opacity="1" style="display: none;"><g opacity="1" transform="matrix(1,0,0,1,0,0)"><path stroke-linecap="round" stroke-linejoin="miter" fill-opacity="0" stroke-miterlimit="4" stroke="rgb(255,255,255)" stroke-opacity="1" stroke-width="10" d=" M-122.39700317382812,-34.35300064086914 C-129.5,-21 -130,15.5 -122.18800354003906,41.625"></path></g></g></g></g></svg>